<svg width="301" height="298" viewBox="0 0 301 298" fill="none" xmlns="http://www.w3.org/2000/svg">
<path d="M56.3928 235.306C54.4128 235.306 52.9188 234.736 51.9108 233.596C50.9148 232.444 50.4168 230.914 50.4168 229.006C50.4168 227.77 50.6328 226.684 51.0648 225.748C51.5088 224.8 52.1808 224.056 53.0808 223.516C53.9808 222.976 55.0968 222.706 56.4288 222.706C59.8848 222.706 61.7688 224.302 62.0808 227.494H60.5688C60.4368 226.318 60.0288 225.436 59.3448 224.848C58.6608 224.248 57.6768 223.948 56.3928 223.948C54.9048 223.948 53.7948 224.374 53.0628 225.226C52.3428 226.066 51.9828 227.326 51.9828 229.006C51.9828 230.698 52.3368 231.964 53.0448 232.804C53.7648 233.644 54.8688 234.064 56.3568 234.064C57.6888 234.064 58.7088 233.734 59.4168 233.074C60.1248 232.414 60.5208 231.466 60.6048 230.23H62.1348C62.0268 231.826 61.5048 233.074 60.5688 233.974C59.6328 234.862 58.2408 235.306 56.3928 235.306ZM65.6979 235H64.2579V222.4H65.6979V235ZM69.7413 235H68.3013V226H69.7413V235ZM69.9573 224.524H68.1033V223.03H69.9573V224.524ZM71.8064 230.5C71.8064 229.576 71.9804 228.754 72.3284 228.034C72.6764 227.302 73.1864 226.732 73.8584 226.324C74.5424 225.916 75.3584 225.712 76.3064 225.712C77.6144 225.712 78.6224 226.036 79.3304 226.684C80.0384 227.332 80.4284 228.202 80.5004 229.294H79.1504C79.0424 228.538 78.7544 227.95 78.2864 227.53C77.8184 227.098 77.1764 226.882 76.3604 226.882C74.2964 226.882 73.2644 228.088 73.2644 230.5C73.2644 231.76 73.5224 232.678 74.0384 233.254C74.5664 233.83 75.3224 234.118 76.3064 234.118C77.1824 234.118 77.8664 233.89 78.3584 233.434C78.8504 232.978 79.1444 232.354 79.2404 231.562H80.6084C80.5724 232.27 80.3804 232.906 80.0324 233.47C79.6964 234.034 79.2104 234.478 78.5744 234.802C77.9504 235.126 77.1944 235.288 76.3064 235.288C75.3464 235.288 74.5244 235.084 73.8404 234.676C73.1684 234.268 72.6584 233.704 72.3104 232.984C71.9744 232.264 71.8064 231.436 71.8064 230.5ZM89.095 235L85.693 230.662L83.839 232.426V235H82.399V222.4H83.839V230.824C84.091 230.5 84.379 230.188 84.703 229.888L88.753 226H90.535V226.036L86.593 229.798L90.913 235H89.095ZM99.6064 235C98.7784 235 98.2084 234.838 97.8964 234.514C97.5844 234.19 97.4284 233.65 97.4284 232.894V227.134H95.7184V226.324L97.5544 225.874L98.0944 224.002H98.8684V226H101.838V227.134H98.8684V233.83H101.73V235H99.6064ZM107.35 235.288C106.366 235.288 105.532 235.084 104.848 234.676C104.176 234.256 103.666 233.686 103.318 232.966C102.982 232.234 102.814 231.406 102.814 230.482C102.814 229.57 102.982 228.754 103.318 228.034C103.666 227.314 104.176 226.75 104.848 226.342C105.532 225.922 106.366 225.712 107.35 225.712C108.322 225.712 109.144 225.922 109.816 226.342C110.5 226.75 111.01 227.314 111.346 228.034C111.694 228.754 111.868 229.57 111.868 230.482C111.868 231.406 111.694 232.228 111.346 232.948C111.01 233.668 110.5 234.238 109.816 234.658C109.144 235.078 108.322 235.288 107.35 235.288ZM104.272 230.5C104.272 231.748 104.524 232.666 105.028 233.254C105.544 233.83 106.318 234.118 107.35 234.118C108.382 234.118 109.15 233.83 109.654 233.254C110.158 232.666 110.41 231.748 110.41 230.5C110.41 229.252 110.158 228.34 109.654 227.764C109.15 227.176 108.382 226.882 107.35 226.882C106.318 226.882 105.544 227.176 105.028 227.764C104.524 228.34 104.272 229.252 104.272 230.5ZM124.545 226H125.985V235H124.545V232.714C123.969 234.43 122.853 235.288 121.197 235.288C120.069 235.288 119.235 234.994 118.695 234.406C118.167 233.818 117.903 232.93 117.903 231.742V226H119.343V231.58C119.343 232.528 119.535 233.188 119.919 233.56C120.303 233.92 120.867 234.1 121.611 234.1C122.547 234.1 123.267 233.698 123.771 232.894C124.287 232.078 124.545 230.926 124.545 229.438V226ZM133.33 225.712C134.686 225.712 135.712 226.15 136.408 227.026C137.104 227.902 137.452 229.06 137.452 230.5C137.452 231.952 137.104 233.116 136.408 233.992C135.712 234.856 134.686 235.288 133.33 235.288C132.514 235.288 131.818 235.12 131.242 234.784C130.678 234.436 130.24 233.938 129.928 233.29V238.6H128.488V226H129.928V227.728C130.24 227.08 130.678 226.582 131.242 226.234C131.818 225.886 132.514 225.712 133.33 225.712ZM133.042 234.118C134.062 234.118 134.806 233.824 135.274 233.236C135.754 232.636 135.994 231.724 135.994 230.5C135.994 229.276 135.754 228.37 135.274 227.782C134.806 227.182 134.062 226.882 133.042 226.882C132.058 226.882 131.29 227.176 130.738 227.764C130.198 228.352 129.928 229.264 129.928 230.5C129.928 231.736 130.198 232.648 130.738 233.236C131.29 233.824 132.058 234.118 133.042 234.118ZM140.88 235H139.44V222.4H140.88V235ZM147.411 235.288C146.427 235.288 145.593 235.084 144.909 234.676C144.237 234.256 143.727 233.686 143.379 232.966C143.043 232.234 142.875 231.406 142.875 230.482C142.875 229.57 143.043 228.754 143.379 228.034C143.727 227.314 144.237 226.75 144.909 226.342C145.593 225.922 146.427 225.712 147.411 225.712C148.383 225.712 149.205 225.922 149.877 226.342C150.561 226.75 151.071 227.314 151.407 228.034C151.755 228.754 151.929 229.57 151.929 230.482C151.929 231.406 151.755 232.228 151.407 232.948C151.071 233.668 150.561 234.238 149.877 234.658C149.205 235.078 148.383 235.288 147.411 235.288ZM144.333 230.5C144.333 231.748 144.585 232.666 145.089 233.254C145.605 233.83 146.379 234.118 147.411 234.118C148.443 234.118 149.211 233.83 149.715 233.254C150.219 232.666 150.471 231.748 150.471 230.5C150.471 229.252 150.219 228.34 149.715 227.764C149.211 227.176 148.443 226.882 147.411 226.882C146.379 226.882 145.605 227.176 145.089 227.764C144.585 228.34 144.333 229.252 144.333 230.5ZM156.607 235.234C155.719 235.234 154.999 235.006 154.447 234.55C153.907 234.094 153.637 233.452 153.637 232.624C153.637 231.88 153.853 231.286 154.285 230.842C154.729 230.386 155.425 230.08 156.373 229.924L158.659 229.546C159.151 229.462 159.499 229.342 159.703 229.186C159.907 229.03 160.009 228.784 160.009 228.448C160.009 227.944 159.841 227.548 159.505 227.26C159.181 226.972 158.611 226.828 157.795 226.828C156.223 226.828 155.383 227.494 155.275 228.826H153.853C153.877 227.854 154.225 227.092 154.897 226.54C155.569 225.976 156.517 225.694 157.741 225.694C158.929 225.694 159.823 225.946 160.423 226.45C161.023 226.942 161.323 227.608 161.323 228.448V232.768C161.323 233.548 161.359 234.292 161.431 235H160.117C160.033 234.1 159.991 233.398 159.991 232.894C159.787 233.542 159.409 234.094 158.857 234.55C158.305 235.006 157.555 235.234 156.607 235.234ZM156.895 234.1C157.567 234.1 158.137 233.944 158.605 233.632C159.073 233.32 159.421 232.906 159.649 232.39C159.889 231.874 160.009 231.322 160.009 230.734V229.96C159.793 230.116 159.559 230.236 159.307 230.32C159.067 230.404 158.761 230.488 158.389 230.572L156.895 230.878C156.271 231.01 155.815 231.208 155.527 231.472C155.239 231.724 155.095 232.09 155.095 232.57C155.095 233.074 155.257 233.458 155.581 233.722C155.905 233.974 156.343 234.1 156.895 234.1ZM170.807 222.4H172.247V235H170.807V233.272C170.495 233.92 170.051 234.418 169.475 234.766C168.911 235.114 168.221 235.288 167.405 235.288C166.049 235.288 165.023 234.85 164.327 233.974C163.631 233.098 163.283 231.94 163.283 230.5C163.283 229.048 163.631 227.89 164.327 227.026C165.023 226.15 166.049 225.712 167.405 225.712C168.221 225.712 168.911 225.886 169.475 226.234C170.051 226.57 170.495 227.062 170.807 227.71V222.4ZM167.693 234.118C168.677 234.118 169.439 233.824 169.979 233.236C170.531 232.648 170.807 231.736 170.807 230.5C170.807 229.264 170.531 228.352 169.979 227.764C169.439 227.176 168.677 226.882 167.693 226.882C166.673 226.882 165.923 227.182 165.443 227.782C164.975 228.37 164.741 229.276 164.741 230.5C164.741 231.724 164.975 232.636 165.443 233.236C165.923 233.824 166.673 234.118 167.693 234.118ZM181.585 235.234C180.697 235.234 179.977 235.006 179.425 234.55C178.885 234.094 178.615 233.452 178.615 232.624C178.615 231.88 178.831 231.286 179.263 230.842C179.707 230.386 180.403 230.08 181.351 229.924L183.637 229.546C184.129 229.462 184.477 229.342 184.681 229.186C184.885 229.03 184.987 228.784 184.987 228.448C184.987 227.944 184.819 227.548 184.483 227.26C184.159 226.972 183.589 226.828 182.773 226.828C181.201 226.828 180.361 227.494 180.253 228.826H178.831C178.855 227.854 179.203 227.092 179.875 226.54C180.547 225.976 181.495 225.694 182.719 225.694C183.907 225.694 184.801 225.946 185.401 226.45C186.001 226.942 186.301 227.608 186.301 228.448V232.768C186.301 233.548 186.337 234.292 186.409 235H185.095C185.011 234.1 184.969 233.398 184.969 232.894C184.765 233.542 184.387 234.094 183.835 234.55C183.283 235.006 182.533 235.234 181.585 235.234ZM181.873 234.1C182.545 234.1 183.115 233.944 183.583 233.632C184.051 233.32 184.399 232.906 184.627 232.39C184.867 231.874 184.987 231.322 184.987 230.734V229.96C184.771 230.116 184.537 230.236 184.285 230.32C184.045 230.404 183.739 230.488 183.367 230.572L181.873 230.878C181.249 231.01 180.793 231.208 180.505 231.472C180.217 231.724 180.073 232.09 180.073 232.57C180.073 233.074 180.235 233.458 180.559 233.722C180.883 233.974 181.321 234.1 181.873 234.1ZM197.596 225.712C198.952 225.712 199.978 226.15 200.674 227.026C201.37 227.902 201.718 229.06 201.718 230.5C201.718 231.952 201.37 233.116 200.674 233.992C199.978 234.856 198.952 235.288 197.596 235.288C196.78 235.288 196.084 235.12 195.508 234.784C194.944 234.436 194.506 233.938 194.194 233.29V238.6H192.754V226H194.194V227.728C194.506 227.08 194.944 226.582 195.508 226.234C196.084 225.886 196.78 225.712 197.596 225.712ZM197.308 234.118C198.328 234.118 199.072 233.824 199.54 233.236C200.02 232.636 200.26 231.724 200.26 230.5C200.26 229.276 200.02 228.37 199.54 227.782C199.072 227.182 198.328 226.882 197.308 226.882C196.324 226.882 195.556 227.176 195.004 227.764C194.464 228.352 194.194 229.264 194.194 230.5C194.194 231.736 194.464 232.648 195.004 233.236C195.556 233.824 196.324 234.118 197.308 234.118ZM205.181 235H203.741V226H205.181V235ZM205.397 224.524H203.543V223.03H205.397V224.524ZM207.246 230.5C207.246 229.576 207.42 228.754 207.768 228.034C208.116 227.302 208.626 226.732 209.298 226.324C209.982 225.916 210.798 225.712 211.746 225.712C213.054 225.712 214.062 226.036 214.77 226.684C215.478 227.332 215.868 228.202 215.94 229.294H214.59C214.482 228.538 214.194 227.95 213.726 227.53C213.258 227.098 212.616 226.882 211.8 226.882C209.736 226.882 208.704 228.088 208.704 230.5C208.704 231.76 208.962 232.678 209.478 233.254C210.006 233.83 210.762 234.118 211.746 234.118C212.622 234.118 213.306 233.89 213.798 233.434C214.29 232.978 214.584 232.354 214.68 231.562H216.048C216.012 232.27 215.82 232.906 215.472 233.47C215.136 234.034 214.65 234.478 214.014 234.802C213.39 235.126 212.634 235.288 211.746 235.288C210.786 235.288 209.964 235.084 209.28 234.676C208.608 234.268 208.098 233.704 207.75 232.984C207.414 232.264 207.246 231.436 207.246 230.5ZM220.72 235C219.892 235 219.322 234.838 219.01 234.514C218.698 234.19 218.542 233.65 218.542 232.894V227.134H216.832V226.324L218.668 225.874L219.208 224.002H219.982V226H222.952V227.134H219.982V233.83H222.844V235H220.72ZM231.279 226H232.719V235H231.279V232.714C230.703 234.43 229.587 235.288 227.931 235.288C226.803 235.288 225.969 234.994 225.429 234.406C224.901 233.818 224.637 232.93 224.637 231.742V226H226.077V231.58C226.077 232.528 226.269 233.188 226.653 233.56C227.037 233.92 227.601 234.1 228.345 234.1C229.281 234.1 230.001 233.698 230.505 232.894C231.021 232.078 231.279 230.926 231.279 229.438V226ZM240.228 225.874V227.296H239.85C238.614 227.26 237.762 227.626 237.294 228.394C236.838 229.162 236.61 230.26 236.61 231.688V235H235.17V226H236.61V228.376C236.898 227.596 237.312 226.984 237.852 226.54C238.404 226.096 239.088 225.874 239.904 225.874H240.228ZM245.584 234.19C247.168 234.19 248.116 233.536 248.428 232.228H249.742C249.634 233.056 249.244 233.776 248.572 234.388C247.9 234.988 246.886 235.288 245.53 235.288C244.054 235.288 242.938 234.85 242.182 233.974C241.438 233.086 241.066 231.922 241.066 230.482C241.066 229.57 241.234 228.754 241.57 228.034C241.906 227.314 242.41 226.75 243.082 226.342C243.754 225.922 244.57 225.712 245.53 225.712C246.406 225.712 247.162 225.904 247.798 226.288C248.446 226.66 248.932 227.188 249.256 227.872C249.592 228.544 249.76 229.318 249.76 230.194C249.76 230.47 249.748 230.68 249.724 230.824H242.488C242.536 232.012 242.824 232.87 243.352 233.398C243.892 233.926 244.636 234.19 245.584 234.19ZM245.548 226.81C244.66 226.81 243.958 227.044 243.442 227.512C242.926 227.98 242.62 228.724 242.524 229.744H248.356C248.284 227.788 247.348 226.81 245.548 226.81Z" fill="white"/>
<rect x="1" y="1" width="299" height="296" stroke="white" stroke-width="2" stroke-dasharray="10 10"/>
<rect x="99" y="95" width="103" height="103" fill="#2489E7"/>
<rect x="107" y="103" width="87" height="87" fill="black"/>
<rect x="123" y="162" width="8" height="16" fill="#FFEB40"/>
<rect x="170" y="162" width="8" height="16" fill="#FFEB40"/>
<rect x="139" y="131" width="8" height="23" transform="rotate(-90 139 131)" fill="#FFEB40"/>
<rect x="146" y="115" width="8" height="47" fill="#FFEB40"/>
<rect x="123" y="178" width="8" height="55" transform="rotate(-90 123 178)" fill="#FFEB40"/>
<rect x="131" y="131" width="8" height="8" fill="#FFEB40"/>
<rect x="162" y="131" width="8" height="8" fill="#FFEB40"/>
</svg>
