<svg width="160" height="85" viewBox="0 0 160 85" fill="none" xmlns="http://www.w3.org/2000/svg">
<path d="M39.1274 0V3.39953H32.3283V23.7967H28.9288V3.39953H22.1297V0H39.1274Z" fill="white"/>
<path d="M62.7881 0H66.1877V23.7967H62.7881V13.5981H49.19V23.7967H45.7904V0H49.19V10.1986H62.7881V0Z" fill="white"/>
<path d="M93.2479 3.39953H76.2503V10.1986H89.8484V13.5981H76.2503V20.3972H93.2479V23.7967H72.8507V0H93.2479V3.39953Z" fill="white"/>
<path d="M69.5192 33.7308H72.9187V50.7284H69.5192V54.128H52.5215V30.3312H69.5192V33.7308ZM69.3832 33.7308H55.9211V50.7284H69.3832V33.7308Z" fill="white"/>
<path d="M79.5818 30.3312H82.9813V54.128H79.5818V30.3312Z" fill="white"/>
<path d="M99.843 40.5298H96.4435V37.1303H93.044V54.128H89.6444V30.3312H93.044V33.7308H96.4435V37.1303H99.843V40.5298H103.243V43.9294H106.642V30.3312H110.042V54.128H106.642V47.3289H103.243V43.9294H99.843V40.5298Z" fill="white"/>
<path d="M120.104 33.8667V50.5924H133.702V33.8667H120.104ZM133.702 30.3312V33.7308H137.102V50.7284H133.702V54.128H120.104V50.7284H116.705V33.7308H120.104V30.3312H133.702Z" fill="white"/>
<path d="M0.100708 77.6601H3.50024V81.0596H17.0984V74.2606H3.50024V70.861H0.100708V64.062H3.50024V60.6624H17.0984V64.062H20.4979V67.4615H17.0984V64.062H3.50024V70.861H17.0984V74.2606H20.4979V81.0596H17.0984V84.4592H3.50024V81.0596H0.100708V77.6601Z" fill="white"/>
<path d="M44.1587 60.6624H47.5582V84.4592H44.1587V74.2606H30.5605V84.4592H27.161V60.6624H30.5605V70.861H44.1587V60.6624Z" fill="white"/>
<path d="M57.6208 64.198V80.9237H71.219V64.198H57.6208ZM71.219 60.6624V64.062H74.6185V81.0596H71.219V84.4592H57.6208V81.0596H54.2213V64.062H57.6208V60.6624H71.219Z" fill="white"/>
<path d="M108.478 60.6624H111.877V81.0596H108.478V84.4592H98.2792V81.0596H94.8797V84.4592H84.6811V81.0596H81.2816V60.6624H84.6811V81.0596H94.8797V60.6624H98.2792V81.0596H108.478V60.6624Z" fill="white"/>
<path d="M129.605 67.8024H132.732V64.4028H129.605V67.8024ZM129.469 64.4028V61.0033H132.868V64.4028H136.268V67.8024H132.868V71.2019H129.469V67.8024H126.069V64.4028H129.469Z" fill="#FFEB40"/>
<path d="M142.931 77.9466V74.547H159.928V77.9466H142.931ZM142.931 67.748H159.928V71.1475H142.931V67.748Z" fill="#FFEB40"/>
<path d="M8.0531 40.8163V37.4168H11.4526V34.0173H14.8522V30.6177H18.2517V34.0173H21.6512V37.4168H25.0508V40.8163H21.6512V37.4168H18.2517V34.0173H14.8522V37.4168H11.4526V40.8163H8.0531Z" fill="#50C78D"/>
<path d="M35.2494 40.8163V44.2159H38.3769V40.8163H35.2494ZM31.7139 54.4145V51.0149H38.5129V47.6154H35.1134V44.2159H31.7139V40.8163H35.1134V37.4168H31.7139V34.0173H35.1134V30.6177H41.9125V34.0173H35.1134V37.4168H38.5129V40.8163H41.9125V44.2159H38.5129V47.6154H41.9125V51.0149H38.5129V54.4145H31.7139Z" fill="#50C78D"/>
<path d="M103.549 7.08551V10.485H106.949V13.8846H110.348V17.2841H106.949V20.6836H103.549V24.0832H100.15V20.6836H103.549V17.2841H106.949V13.8846H103.549V10.485H100.15V7.08551H103.549Z" fill="#2489E7"/>
<path d="M134.009 7.08551H120.411V10.485H130.609V13.8846H134.009V17.2841H130.609V20.6836H127.21V24.0832H123.81V20.6836H117.011V17.2841H130.609V13.8846H120.411V10.485H117.011V7.08551H120.411V3.68597H123.81V0.286438H127.21V3.68597H134.009V7.08551Z" fill="#2489E7"/>
</svg>
