<svg width="183" height="60" viewBox="0 0 183 60" fill="none" xmlns="http://www.w3.org/2000/svg">
<path d="M28.0915 13.3549C28.0915 26.1414 26.2893 26.1275 20.6978 26.1275H15.4159V0.596122H20.6978C26.2939 0.596122 28.0915 0.582253 28.0915 13.3549ZM24.6673 13.3549C24.6673 4.32532 24.0758 3.84935 21.5481 3.84935H18.8632V22.8743H21.5481C24.0758 22.8743 24.6673 22.3937 24.6673 13.3549Z" fill="white"/>
<path d="M34.1821 3.86321V11.7514H41.1137V14.9861H34.1821V22.8743H41.9501V26.1414H30.7625V0.596122H41.9501V3.86321H34.1821Z" fill="white"/>
<path d="M51.4094 18.9002C51.4094 24.9954 50.6285 26.5203 47.7819 26.5203C44.695 26.5203 44.085 24.9954 44.085 18.2394H45.9935C45.9935 22.8604 46.1876 24.9954 47.7541 24.9954C49.3207 24.9954 49.5148 22.8789 49.5148 18.8309C49.5148 16.3586 48.6876 15.0508 47.3891 13.8909C45.0786 11.8484 44.2237 10.7902 44.2237 7.81424C44.2237 1.76525 44.9446 0.258779 47.7958 0.258779C50.8827 0.258779 51.2847 1.86229 51.2847 8.47505H49.5148C49.5148 3.83087 49.3761 1.76525 47.7541 1.76525C46.1322 1.76525 45.9935 3.91867 45.9935 7.88355C45.9858 8.61384 46.1396 9.3368 46.444 10.0007C46.7484 10.6646 47.1958 11.2529 47.7541 11.7237C50.2126 14.0481 51.4094 14.9584 51.4094 18.9002Z" fill="white"/>
<path d="M54.159 26.1414V0.596122H56.0074V26.1414H54.159Z" fill="white"/>
<path d="M175.319 13.3549C175.319 24.9076 174.575 26.488 171.493 26.488C168.41 26.488 167.763 24.8475 167.763 13.3549C167.763 1.86229 168.475 0.221802 171.539 0.221802C174.603 0.221802 175.319 1.80221 175.319 13.3549ZM173.406 13.3549C173.406 3.73382 173.161 1.7329 171.557 1.7329C169.954 1.7329 169.709 3.71996 169.709 13.3549C169.709 22.9898 169.949 24.9584 171.557 24.9584C173.165 24.9584 173.406 23.0222 173.406 13.3549Z" fill="white"/>
<path d="M110.171 13.378C110.171 24.9307 110.171 26.7514 84.4593 26.7514C58.7477 26.7514 58.7477 24.8706 58.7477 13.378C58.7477 1.88539 58.7477 0 84.4593 0C105.356 0 109.27 1.08595 110 7.82347H94.1682C93.1331 5.91497 90.6146 5.05083 84.464 5.05083C74.0388 5.05083 74.0388 7.46303 74.0388 13.3688C74.0388 19.2745 74.0388 21.6867 84.464 21.6867C92.6479 21.6867 94.4039 20.1895 94.7828 16.7052H81.6636V11.5065H110.171C110.171 12.1164 110.171 12.731 110.171 13.378Z" fill="white"/>
<path d="M165.088 0.596122V26.1414H151.031L127.551 10.1617V26.1414H113.313V0.596122H127.371L150.85 16.5896V0.596122H165.088Z" fill="white"/>
<path d="M89.4963 46.6266C89.4963 58.1793 88.6553 60 83.3226 60C77.9899 60 77.1535 58.1192 77.1535 46.6266C77.1535 35.134 78.147 33.2255 83.3226 33.2255C88.7061 33.2255 89.4963 35.0462 89.4963 46.6266ZM86.183 46.6266C86.183 38.8124 85.9289 36.622 83.3226 36.622C80.7163 36.622 80.4621 38.683 80.4621 46.6266C80.4621 54.5702 80.7163 56.6174 83.3226 56.6174C85.9289 56.6174 86.183 54.4224 86.183 46.6266Z" fill="white"/>
<path d="M104.45 33.8447V46.6266C104.45 58.1793 103.258 60 98.2764 60C93.1932 60 92.1072 58.1192 92.1072 46.6266V33.8447H95.4159V47.7588C95.4159 54.8059 95.6747 56.5989 98.2764 56.5989C100.878 56.5989 101.141 54.8059 101.141 47.7588V33.8447H104.45Z" fill="white"/>
<path d="M75.0509 52.1211C75.0509 59.0527 64.8845 59.9769 37.5278 59.9769C7.89283 59.9769 0 58.646 0 51.4556H22.9344C22.9344 54.0712 26.1692 54.9122 37.5278 54.9122C48.8864 54.9122 52.1165 54.4131 52.1165 52.0425C52.1165 49.6719 49.293 49.7782 37.4769 49.3577C4.06653 48.1654 1.34475 46.585 1.34475 41.0397C1.34475 34.1081 10.1664 33.2394 37.5278 33.2394C67.1581 33.2394 73.7061 34.4593 73.7061 41.7006H52.1165C52.1165 39.1497 49.0111 38.3087 37.5278 38.3087C26.0444 38.3087 22.9344 39.0203 22.9344 41.1091C22.9344 43.1978 24.7551 43.1285 37.574 43.7985C66.2847 45.2911 75.0509 44.7782 75.0509 52.1211Z" fill="white"/>
<path d="M123.854 59.3762L120.767 53.1747H113.937V59.3715H107.468V33.8262H120.023C128.295 33.8262 130.97 34.9261 130.97 43.4981C130.97 48.7292 129.972 51.1784 127.315 52.2782L131.063 59.3577L123.854 59.3762ZM113.937 48.1238H119.219C122.625 48.1238 124.496 47.6617 124.496 43.5028C124.496 39.3438 122.648 38.5028 119.219 38.5028H113.937V48.1238Z" fill="white"/>
<path d="M157.911 51.1322C157.911 56.5018 156.724 59.9815 145.61 59.9815C134.496 59.9815 133.262 56.5019 133.262 46.6081C133.262 36.9547 134.686 33.207 145.61 33.207C156.534 33.207 157.911 37.1257 157.911 42.0471H151.169C150.864 38.988 149.556 37.7634 145.624 37.7634C141.691 37.7634 139.898 39.3346 139.898 46.585C139.898 53.8355 141.469 55.4067 145.61 55.4067C149.75 55.4067 150.961 53.9649 151.155 51.1137L157.911 51.1322Z" fill="white"/>
<path d="M167.047 38.4981V44.464H182.052V48.6737H167.047V54.7135H182.902V59.3762H160.522V33.8262H182.902V38.4981H167.047Z" fill="white"/>
</svg>
