<svg width="52" height="50" viewBox="0 0 52 50" fill="none" xmlns="http://www.w3.org/2000/svg">
<path d="M22.2543 24.9988L0.994629 46.615L0.994631 24.9419L22.2543 24.9988Z" fill="#50C78D"/>
<path d="M26.05 21.2597L4.43384 0L26.1069 2.02879e-06L26.05 21.2597Z" fill="#35835D"/>
<path d="M29.6664 24.872L50.926 3.25586L50.926 24.9289L29.6664 24.872Z" fill="#1A422F"/>
<path fill-rule="evenodd" clip-rule="evenodd" d="M26.0618 50V37.3256C19.2545 37.3256 13.7362 31.8072 13.7362 25H1.06177C1.06177 38.8071 12.2546 50 26.0618 50Z" fill="#50C78D"/>
<path d="M26.0618 37.3256V50C34.4515 50 41.876 45.8673 46.4106 39.5266L35.9752 32.3256C33.7299 35.359 30.1255 37.3256 26.0618 37.3256Z" fill="#50C78D"/>
<path d="M13.7362 25C13.7362 18.1928 19.2545 12.6744 26.0618 12.6744V0C12.2546 0 1.06177 11.1929 1.06177 25H13.7362Z" fill="#35835D"/>
<path d="M26.0618 12.6744C32.869 12.6744 38.3873 17.9602 38.3873 24.7674H50.8292C50.8292 10.9603 39.8689 0 26.0618 0V12.6744Z" fill="#1A422F"/>
</svg>
