<svg width="71" height="70" viewBox="0 0 71 70" fill="none" xmlns="http://www.w3.org/2000/svg">
<g clip-path="url(#clip0_880:1035)">
<path d="M67.0127 15.5558V54.4447H63.1239V58.3336H59.235V62.2225H55.3461V66.1114H16.4572V62.2225H12.5683V58.3336H8.67942V54.4447H4.79053V15.5558H8.67942V11.6669H12.5683V7.77805H16.4572V3.88916H55.3461V7.77805H59.235V11.6669H63.1239V15.5558H67.0127Z" fill="white"/>
<path d="M38.4943 32.4072H33.3091V37.5924H38.4943V32.4072Z" fill="#E8422C"/>
<path d="M35.9016 27.2231H39.7905V19.4454H35.9016V27.2231Z" fill="#E8422C"/>
<path d="M39.7908 31.1118H43.6797V23.334H39.7908V31.1118Z" fill="#E8422C"/>
<path d="M43.6795 35.001H47.5684V27.2232H43.6795V35.001Z" fill="#E8422C"/>
<path d="M35.9016 19.4453H32.0127V27.2231H35.9016V19.4453Z" fill="#E8422C"/>
<path d="M32.0129 23.3345H28.124V31.1123H32.0129V23.3345Z" fill="#E8422C"/>
<path d="M28.1238 27.2231H24.2349V35.0009H28.1238V27.2231Z" fill="#E8422C"/>
<path d="M35.9016 50.5566H39.7905V42.7789H35.9016V50.5566Z" fill="#E8422C"/>
<path d="M39.7908 46.6675H43.6797V38.8897H39.7908V46.6675Z" fill="#E8422C"/>
<path d="M43.6795 42.7788H47.5684V35.001H43.6795V42.7788Z" fill="#E8422C"/>
<path d="M47.5686 38.8896H51.4575V31.1119H47.5686V38.8896Z" fill="#E8422C"/>
<path d="M35.9016 42.7788H32.0127V50.5566H35.9016V42.7788Z" fill="#E8422C"/>
<path d="M32.0129 38.8896H28.124V46.6674H32.0129V38.8896Z" fill="#E8422C"/>
<path d="M28.1238 35.001H24.2349V42.7788H28.1238V35.001Z" fill="#E8422C"/>
<path d="M24.2351 31.1118H20.3462V38.8896H24.2351V31.1118Z" fill="#E8422C"/>
<path d="M43.6796 54.4448H28.124V58.3337H43.6796V54.4448Z" fill="#E8422C"/>
<path d="M43.6796 11.667H28.124V15.5559H43.6796V11.667Z" fill="#E8422C"/>
<path d="M43.6795 19.4448H47.5684V11.667H43.6795V19.4448Z" fill="#E8422C"/>
<path d="M47.5681 23.3335H51.457V15.5557H47.5681V23.3335Z" fill="#E8422C"/>
<path d="M51.4573 27.2227H55.3462V19.4449H51.4573V27.2227Z" fill="#E8422C"/>
<path d="M28.1238 11.667H24.2349V19.4448H28.1238V11.667Z" fill="#E8422C"/>
<path d="M24.2351 15.5562H20.3462V23.3339H24.2351V15.5562Z" fill="#E8422C"/>
<path d="M20.3459 19.4448H16.457V27.2226H20.3459V19.4448Z" fill="#E8422C"/>
<path d="M43.6795 58.334H47.5684V50.5562H43.6795V58.334Z" fill="#E8422C"/>
<path d="M47.5681 54.4448H51.457V46.667H47.5681V54.4448Z" fill="#E8422C"/>
<path d="M51.4573 50.5557H55.3462V42.7779H51.4573V50.5557Z" fill="#E8422C"/>
<path d="M28.1238 50.5557H24.2349V58.3334H28.1238V50.5557Z" fill="#E8422C"/>
<path d="M24.2351 46.667H20.3462V54.4448H24.2351V46.667Z" fill="#E8422C"/>
<path d="M20.3459 42.7783H16.457V50.5561H20.3459V42.7783Z" fill="#E8422C"/>
<path d="M59.2351 23.3335H55.3462V46.6668H59.2351V23.3335Z" fill="#E8422C"/>
<path d="M16.4572 23.3335H12.5684V46.6668H16.4572V23.3335Z" fill="#E8422C"/>
<path d="M55.3459 62.2222H16.457V66.1111H55.3459V62.2222Z" fill="#E8422C"/>
<path d="M59.2348 58.3335H51.457V62.2224H59.2348V58.3335Z" fill="#E8422C"/>
<path d="M63.124 54.4448H55.3462V58.3337H63.124V54.4448Z" fill="#E8422C"/>
<path d="M67.0126 50.5557H59.2349V54.4446H67.0126V50.5557Z" fill="#E8422C"/>
<path d="M20.3461 58.3335H12.5684V62.2224H20.3461V58.3335Z" fill="#E8422C"/>
<path d="M16.4575 54.4448H8.67969V58.3337H16.4575V54.4448Z" fill="#E8422C"/>
<path d="M12.5683 50.5557H4.79053V54.4446H12.5683V50.5557Z" fill="#E8422C"/>
<path d="M55.3459 3.88916H16.457V7.77805H55.3459V3.88916Z" fill="#E8422C"/>
<path d="M59.2348 7.77832H51.457V11.6672H59.2348V7.77832Z" fill="#E8422C"/>
<path d="M63.124 11.667H55.3462V15.5559H63.124V11.667Z" fill="#E8422C"/>
<path d="M67.0126 15.5557H59.2349V19.4446H67.0126V15.5557Z" fill="#E8422C"/>
<path d="M20.3461 7.77832H12.5684V11.6672H20.3461V7.77832Z" fill="#E8422C"/>
<path d="M16.4575 11.667H8.67969V15.5559H16.4575V11.667Z" fill="#E8422C"/>
<path d="M12.5683 15.5557H4.79053V19.4446H12.5683V15.5557Z" fill="#E8422C"/>
<path d="M67.0129 19.4443H63.124V50.5554H67.0129V19.4443Z" fill="#E8422C"/>
<path d="M8.67942 19.4443H4.79053V50.5554H8.67942V19.4443Z" fill="#E8422C"/>
<path d="M70.9019 36.9446V33.0557H67.013V36.9446H70.9019Z" fill="#E8422C"/>
<path d="M4.79053 36.9446V33.0557H0.901638L0.901638 36.9446H4.79053Z" fill="#E8422C"/>
<path d="M37.8464 66.1113H33.9575V70.0002H37.8464V66.1113Z" fill="#E8422C"/>
<path d="M37.8464 0H33.9575V3.88889H37.8464V0Z" fill="#E8422C"/>
<path d="M61.5038 36.944V40.8328H50.1612V38.8884H46.2723V36.944H33.9575V34.9995H57.939V36.944H61.5038Z" fill="black"/>
<path d="M61.5038 29.1665V33.0554H57.939V34.9998H33.9575V33.0554H46.2723V31.1109H50.1612V29.1665H61.5038Z" fill="black"/>
</g>
<defs>
<clipPath id="clip0_880:1035">
<rect width="70" height="70" fill="white" transform="translate(0.901855)"/>
</clipPath>
</defs>
</svg>
