<svg width="71" height="70" viewBox="0 0 71 70" fill="none" xmlns="http://www.w3.org/2000/svg">
<g clip-path="url(#clip0_880:1148)">
<path d="M70.9019 38.8889V50.5556H67.013V54.4444H63.1241V58.3333H59.2352V62.2222H51.4574V66.1111H43.6796V70H24.2352V66.1111H16.4574V62.2222H12.5685V58.3333H8.67963V54.4444H4.79074V46.6667H0.901855V27.2222H4.79074V19.4444H8.67963V27.2222H12.5685V35H16.4574V31.1111H24.2352V23.3333H28.1241V15.5556H24.2352V7.77778H28.1241V0H32.013V3.88889H35.9019V7.77778H39.7907V11.6667H43.6796V19.4444H47.5685V31.1111H51.4574V19.4444H55.3463V15.5556H59.2352V19.4444H63.1241V23.3333H67.013V38.8889H70.9019Z" fill="#FFEB40"/>
<path opacity="0.2" d="M16.4575 58.3335H24.2353V54.4446H43.6797V50.5557H51.4575V46.6668H55.3464V42.7779H59.2353V31.1113H55.3464V23.3335H59.2353V27.2224H63.1242V38.8891H67.0131V50.5557H63.1242V54.4446H59.2353V58.3335H51.4575V62.2224H43.6797V66.1113H24.2353V62.2224H16.4575V58.3335Z" fill="#E8422C"/>
<path opacity="0.2" d="M47.5685 35.0003H43.6796V31.1114H39.7907V19.4448H35.9019V11.667H39.7907V19.4448H43.6796V31.1114H47.5685V35.0003Z" fill="#E8422C"/>
<path opacity="0.2" d="M35.9021 7.77783H32.0132V11.6667H35.9021V7.77783Z" fill="#E8422C"/>
<path d="M8.67942 19.4448H4.79053V27.2226H8.67942V19.4448Z" fill="#E8422C"/>
<path d="M12.5686 27.2227H8.67969V35.0004H12.5686V27.2227Z" fill="#E8422C"/>
<path d="M16.4572 35.0005H12.5684V38.8894H16.4572V35.0005Z" fill="#E8422C"/>
<path d="M24.2353 31.1118H16.4575V35.0007H24.2353V31.1118Z" fill="#E8422C"/>
<path d="M28.1242 23.334H24.2354V31.1118H28.1242V23.334Z" fill="#E8422C"/>
<path d="M32.0129 15.5562H28.124V23.3339H32.0129V15.5562Z" fill="#E8422C"/>
<path d="M28.1242 11.667H24.2354V15.5559H28.1242V11.667Z" fill="#E8422C"/>
<path d="M28.1242 7.77832H24.2354V11.6672H28.1242V7.77832Z" fill="#E8422C"/>
<path d="M32.0129 0.000488281H28.124V7.77827H32.0129V0.000488281Z" fill="#E8422C"/>
<path d="M35.9021 3.88965H32.0132V7.77854H35.9021V3.88965Z" fill="#E8422C"/>
<path d="M39.7907 7.77832H35.9019V11.6672H39.7907V7.77832Z" fill="#E8422C"/>
<path d="M43.6794 11.667H39.7905V19.4448H43.6794V11.667Z" fill="#E8422C"/>
<path d="M47.5686 19.4448H43.6797V23.3337H47.5686V19.4448Z" fill="#E8422C"/>
<path d="M47.5686 23.334H43.6797V31.1118H47.5686V23.334Z" fill="#E8422C"/>
<path d="M51.4572 31.1118H47.5684V35.0007H51.4572V31.1118Z" fill="#E8422C"/>
<path d="M55.3464 19.4448H51.4575V31.1115H55.3464V19.4448Z" fill="#E8422C"/>
<path d="M59.2351 15.5562H55.3462V23.3339H59.2351V15.5562Z" fill="#E8422C"/>
<path d="M63.1242 19.4448H59.2354V27.2226H63.1242V19.4448Z" fill="#E8422C"/>
<path d="M67.0129 23.334H63.124V38.8895H67.0129V23.334Z" fill="#E8422C"/>
<path d="M70.9021 38.8892H67.0132V50.5558H70.9021V38.8892Z" fill="#E8422C"/>
<path d="M67.0129 50.5562H63.124V54.445H67.0129V50.5562Z" fill="#E8422C"/>
<path d="M63.1242 54.4448H59.2354V58.3337H63.1242V54.4448Z" fill="#E8422C"/>
<path d="M59.2353 58.3335H51.4575V62.2224H59.2353V58.3335Z" fill="#E8422C"/>
<path d="M51.4575 62.2227H43.6797V66.1115H51.4575V62.2227Z" fill="#E8422C"/>
<path d="M43.6798 66.1118H24.2354V70.0007H43.6798V66.1118Z" fill="#E8422C"/>
<path d="M24.2353 62.2227H16.4575V66.1115H24.2353V62.2227Z" fill="#E8422C"/>
<path d="M16.4572 58.3335H12.5684V62.2224H16.4572V58.3335Z" fill="#E8422C"/>
<path d="M12.5686 54.4448H8.67969V58.3337H12.5686V54.4448Z" fill="#E8422C"/>
<path d="M8.67942 46.6675H4.79053V54.4453H8.67942V46.6675Z" fill="#E8422C"/>
<path d="M4.79074 27.2227H0.901855V46.6671H4.79074V27.2227Z" fill="#E8422C"/>
<path d="M51.4572 3.88916H47.5684V11.6669H51.4572V3.88916Z" fill="#E8422C"/>
<path d="M51.4572 3.88916H47.5684V7.77805H51.4572V3.88916Z" fill="#FFEB40"/>
<path d="M16.4572 7.77832H12.5684V19.445H16.4572V7.77832Z" fill="#E8422C"/>
<path d="M16.4572 7.77832H12.5684V11.6672H16.4572V7.77832Z" fill="#FFEB40"/>
</g>
<defs>
<clipPath id="clip0_880:1148">
<rect width="70" height="70" fill="white" transform="translate(0.901855)"/>
</clipPath>
</defs>
</svg>
