<svg width="41" height="40" viewBox="0 0 41 40" fill="none" xmlns="http://www.w3.org/2000/svg">
<path d="M0.901855 37.5H3.40186L3.40186 2.5H0.901855L0.901855 37.5Z" fill="black"/>
<path opacity="0.5" d="M0.901855 37.5H3.40186L3.40186 2.5H0.901855L0.901855 37.5Z" fill="#2489E7"/>
<path d="M38.4021 40V37.5H3.4021V40H38.4021Z" fill="black"/>
<path opacity="0.5" d="M38.4021 40V37.5H3.4021V40H38.4021Z" fill="#2489E7"/>
<path d="M40.9028 2.5H38.4028V37.5H40.9028V2.5Z" fill="black"/>
<path opacity="0.5" d="M40.9028 2.5H38.4028V37.5H40.9028V2.5Z" fill="#2489E7"/>
<path d="M3.40308 -2.38419e-07V2.5L38.4031 2.5V-2.38419e-07L3.40308 -2.38419e-07Z" fill="black"/>
<path opacity="0.5" d="M3.40308 -2.38419e-07V2.5L38.4031 2.5V-2.38419e-07L3.40308 -2.38419e-07Z" fill="#2489E7"/>
<path d="M38.4019 2.5H3.40186V37.5H38.4019V2.5Z" fill="#2489E7"/>
<path d="M28.4006 7.50098H20.9006V37.501H28.4006V7.50098Z" fill="white"/>
<path d="M33.3999 5.00098H23.3999V12.501H33.3999V5.00098Z" fill="white"/>
<path d="M33.4009 17.501H15.9009V25.001H33.4009V17.501Z" fill="white"/>
</svg>
