<svg width="41" height="40" viewBox="0 0 41 40" fill="none" xmlns="http://www.w3.org/2000/svg">
<g clip-path="url(#clip0_880:1280)">
<path d="M38.4028 40.0005V37.5005H3.40283V40.0005H38.4028Z" fill="black"/>
<path opacity="0.5" d="M38.4028 40.0005V37.5005H3.40283V40.0005H38.4028Z" fill="#F49635"/>
</g>
<path d="M0.902832 37.5H3.40283L3.40283 2.5H0.902832L0.902832 37.5Z" fill="black"/>
<path opacity="0.5" d="M0.902832 37.5H3.40283L3.40283 2.5H0.902832L0.902832 37.5Z" fill="#F49635"/>
<path d="M40.9019 2.5H38.4019V37.5H40.9019V2.5Z" fill="black"/>
<path opacity="0.5" d="M40.9019 2.5H38.4019V37.5H40.9019V2.5Z" fill="#F49635"/>
<path d="M3.40283 2.38419e-07V2.5L38.4028 2.5V2.38419e-07L3.40283 2.38419e-07Z" fill="black"/>
<path opacity="0.5" d="M3.40283 2.38419e-07V2.5L38.4028 2.5V2.38419e-07L3.40283 2.38419e-07Z" fill="#F49635"/>
<path d="M38.4019 2.5H3.40186V37.5H38.4019V2.5Z" fill="#F49635"/>
<path d="M23.4028 12.501H18.4028V15.001H23.4028V12.501Z" fill="white"/>
<path d="M15.9028 17.501H13.4028V22.501H15.9028V17.501Z" fill="white"/>
<path d="M23.4028 25.001H18.4028V27.501H23.4028V25.001Z" fill="white"/>
<path d="M28.4028 17.501H25.9028V22.501H28.4028V17.501Z" fill="white"/>
<path d="M18.4028 15.001H15.9028V17.501H18.4028V15.001Z" fill="white"/>
<path d="M25.9028 15.001H23.4028V17.501H25.9028V15.001Z" fill="white"/>
<path d="M18.4028 22.501H15.9028V25.001H18.4028V22.501Z" fill="white"/>
<path d="M25.9028 22.501H23.4028V25.001H25.9028V22.501Z" fill="white"/>
<path d="M29.6519 11.252H27.1519V13.752H29.6519V11.252Z" fill="white"/>
<path d="M30.9023 5.00195H10.9023V7.50195H30.9023V5.00195Z" fill="white"/>
<path d="M10.9023 7.50195H8.40234V10.002H10.9023V7.50195Z" fill="white"/>
<path d="M33.4023 7.50195H30.9023V10.002H33.4023V7.50195Z" fill="white"/>
<path d="M8.40283 10.0015H5.90283V30.0015H8.40283V10.0015Z" fill="white"/>
<path d="M10.9023 30.0015H8.40234V32.5015H10.9023V30.0015Z" fill="white"/>
<path d="M30.9023 32.502H10.9023V35.002H30.9023V32.502Z" fill="white"/>
<path d="M33.4023 30.0015H30.9023V32.5015H33.4023V30.0015Z" fill="white"/>
<path d="M35.9028 10.0015H33.4028V30.0015H35.9028V10.0015Z" fill="white"/>
<defs>
<clipPath id="clip0_880:1280">
<rect width="40" height="40" fill="white" transform="translate(0.901855)"/>
</clipPath>
</defs>
</svg>
