<svg width="71" height="70" viewBox="0 0 71 70" fill="none" xmlns="http://www.w3.org/2000/svg">
<g clip-path="url(#clip0_880:1099)">
<path d="M55.3459 62.2222H43.6792V66.1111H55.3459V62.2222Z" fill="#2489E7"/>
<path d="M28.1237 62.2222H16.457V66.1111H28.1237V62.2222Z" fill="#2489E7" fill-opacity="0.7"/>
<path d="M39.7905 38.8892V42.778H43.6794V46.6669H59.235V50.5558H43.6794V54.4447H28.1239V50.5558H12.5683V46.6669H28.1239V42.778H32.0127V38.8892H28.1239V35.0003H24.235V31.1114H20.3461V27.2225H4.79053V15.5558H8.67942V7.77805H24.235V3.88916H47.5683V7.77805H63.1239V15.5558H67.0127V27.2225H51.4572V31.1114H47.5683V35.0003H43.6794V38.8892H39.7905Z" fill="#2489E7" fill-opacity="0.7"/>
<path d="M39.7907 38.8892V42.7781H43.6796V46.6669H59.2351V50.5558H43.6796V54.4447H35.9018V50.5558H39.7907V46.6669H35.9018V35.0003H39.7907V31.1114H28.124V27.2225H32.0129V23.3336H39.7907V15.5558H35.9018V3.88916H47.5685V7.77805H63.124V15.5558H67.0129V27.2225H51.4574V31.1114H47.5685V35.0003H43.6796V38.8892H39.7907Z" fill="#2489E7"/>
<path d="M8.67942 15.5561H4.79053V19.445H12.5683V7.77832H8.67942V15.5561Z" fill="#2489E7"/>
<path d="M63.1237 15.5561H59.2348V11.6672H51.457V7.77832H63.1237V15.5561Z" fill="#2489E7" fill-opacity="0.7"/>
<path d="M51.4575 15.5552H43.6797V23.333H51.4575V15.5552Z" fill="black"/>
<path d="M28.124 15.5557H20.3462V23.3334H28.124V15.5557Z" fill="black"/>
<path d="M43.6794 62.2222H39.7905V66.1111H43.6794V62.2222Z" fill="#FFEB40"/>
<path d="M67.0131 58.333H59.2354V62.2219H67.0131V58.333Z" fill="#FFEB40"/>
<path d="M63.124 62.2222H55.3462V66.1111H63.124V62.2222Z" fill="#FFEB40"/>
<path d="M59.2352 66.1113H43.6797V70.0002H59.2352V66.1113Z" fill="#FFEB40"/>
<path d="M55.3464 58.333H43.6797V62.2219H55.3464V58.333Z" fill="#FFEB40"/>
<path d="M12.5683 58.333H4.79053V62.2219H12.5683V58.333Z" fill="#FFEB40"/>
<path d="M16.4575 62.2222H8.67969V66.1111H16.4575V62.2222Z" fill="#FFEB40"/>
<path d="M28.1239 66.1113H12.5684V70.0002H28.1239V66.1113Z" fill="#FFEB40"/>
<path d="M32.0129 62.2222H28.124V66.1111H32.0129V62.2222Z" fill="#FFEB40"/>
<path d="M28.1242 58.333H16.4575V62.2219H28.1242V58.333Z" fill="#FFEB40"/>
<path d="M70.902 35H59.2354V42.7778H70.902V35Z" fill="#FFEB40"/>
<path d="M51.4572 31.1113H47.5684V35.0002H51.4572V31.1113Z" fill="#FFEB40"/>
<path d="M47.5686 35H43.6797V38.8889H47.5686V35Z" fill="#FFEB40"/>
<path d="M43.6794 38.8887H39.7905V42.7776H43.6794V38.8887Z" fill="#FFEB40"/>
<path d="M59.2352 42.7778H43.6797V46.6667H59.2352V42.7778Z" fill="#FFEB40"/>
<path d="M63.1242 42.7778H59.2354V50.5556H63.1242V42.7778Z" fill="#FFEB40"/>
<path d="M59.2352 50.5557H43.6797V54.4446H59.2352V50.5557Z" fill="#FFEB40"/>
<path d="M43.6796 54.4443H28.124V58.3332H43.6796V54.4443Z" fill="#FFEB40"/>
<path d="M28.1239 50.5557H12.5684V54.4446H28.1239V50.5557Z" fill="#FFEB40"/>
<path d="M12.5686 42.7778H8.67969V50.5556H12.5686V42.7778Z" fill="#FFEB40"/>
<path d="M12.5685 35H0.901855V42.7778H12.5685V35Z" fill="#FFEB40"/>
<path d="M28.1239 42.7778H12.5684V46.6667H28.1239V42.7778Z" fill="#FFEB40"/>
<path d="M32.0129 38.8887H28.124V42.7776H32.0129V38.8887Z" fill="#FFEB40"/>
<path d="M28.1242 35H24.2354V38.8889H28.1242V35Z" fill="#FFEB40"/>
<path d="M24.2351 31.1113H20.3462V35.0002H24.2351V31.1113Z" fill="#FFEB40"/>
<path d="M63.1239 3.88916H47.5684V7.77805H63.1239V3.88916Z" fill="#FFEB40"/>
<path d="M67.0129 7.77783H63.124V15.5556H67.0129V7.77783Z" fill="#FFEB40"/>
<path d="M70.9021 15.5557H67.0132V27.2223H70.9021V15.5557Z" fill="#FFEB40"/>
<path d="M67.0131 27.2222H51.4575V31.1111H67.0131V27.2222Z" fill="#FFEB40"/>
<path d="M20.3461 27.2222H4.79053V31.1111H20.3461V27.2222Z" fill="#FFEB40"/>
<path d="M4.79074 15.5557H0.901855V27.2223H4.79074V15.5557Z" fill="#FFEB40"/>
<path d="M8.67942 7.77783H4.79053V15.5556H8.67942V7.77783Z" fill="#FFEB40"/>
<path d="M24.2352 3.88916H8.67969V7.77805H24.2352V3.88916Z" fill="#FFEB40"/>
<path d="M51.4573 0H20.3462V3.88889H51.4573V0Z" fill="#FFEB40"/>
</g>
<defs>
<clipPath id="clip0_880:1099">
<rect width="70" height="70" fill="white" transform="translate(0.901855)"/>
</clipPath>
</defs>
</svg>
