<svg width="41" height="40" viewBox="0 0 41 40" fill="none" xmlns="http://www.w3.org/2000/svg">
<path d="M3.4043 0.000976801V2.50098L38.4043 2.50098V0.000976801L3.4043 0.000976801Z" fill="black"/>
<path opacity="0.5" d="M3.4043 0.000976801V2.50098L38.4043 2.50098V0.000976801L3.4043 0.000976801Z" fill="#2489E7"/>
<path d="M0.902832 37.501H3.40283L3.40283 2.50098H0.902832L0.902832 37.501Z" fill="black"/>
<path opacity="0.5" d="M0.902832 37.501H3.40283L3.40283 2.50098H0.902832L0.902832 37.501Z" fill="#2489E7"/>
<path d="M38.4038 40.001V37.501H3.40381V40.001H38.4038Z" fill="black"/>
<path opacity="0.5" d="M38.4038 40.001V37.501H3.40381V40.001H38.4038Z" fill="#2489E7"/>
<path d="M40.9038 2.50098H38.4038V37.501H40.9038V2.50098Z" fill="black"/>
<path opacity="0.5" d="M40.9038 2.50098H38.4038V37.501H40.9038V2.50098Z" fill="#2489E7"/>
<path d="M38.4028 2.50098H3.40283V37.501H38.4028V2.50098Z" fill="#2489E7"/>
<path d="M13.4048 15.0015H5.90479V37.5015H13.4048V15.0015Z" fill="white"/>
<path d="M23.4048 15.0015H15.9048V37.5015H23.4048V15.0015Z" fill="white"/>
<path d="M35.9053 17.502H28.4053V37.5019H35.9053V17.502Z" fill="white"/>
<path d="M13.4053 5.00098H5.90527V12.501H13.4053V5.00098Z" fill="white"/>
<path d="M33.4058 15.0015H25.9058V17.5015H33.4058V15.0015Z" fill="white"/>
<path d="M25.9043 17.502H23.4043V25.0019H25.9043V17.502Z" fill="white"/>
<path d="M28.4058 17.502H25.9058V22.502H28.4058V17.502Z" fill="white"/>
</svg>
