<svg width="61" height="54" viewBox="0 0 61 54" fill="none" xmlns="http://www.w3.org/2000/svg">
<path d="M60.9019 16.875V47.25H57.5685V50.625H54.2352V54H7.56852V50.625H4.23519V47.25H0.901855V16.875H4.23519V13.5H7.56852V16.875H10.9019V20.25H14.2352V23.625H17.5685V27H20.9019V30.375H24.2352V33.75H27.5685V37.125H34.2352V33.75H37.5685V30.375H40.9019V27H44.2352V23.625H47.5685V20.25H50.9019V16.875H54.2352V13.5H57.5685V16.875H60.9019Z" fill="#50C78D"/>
<path d="M54.235 3.375V16.875H50.9017V20.25H47.5684V23.625H44.235V27H40.9017V30.375H37.5684V33.75H34.235V37.125H27.5684V33.75H24.235V30.375H20.9017V27H17.5684V23.625H14.235V20.25H10.9017V16.875H7.56836V3.375H54.235Z" fill="white"/>
<path d="M27.5687 10.125H24.2354V13.5H27.5687V10.125Z" fill="black"/>
<path d="M37.5687 10.125H34.2354V13.5H37.5687V10.125Z" fill="black"/>
<path d="M37.5687 20.25H24.2354V23.625H37.5687V20.25Z" fill="black"/>
<path d="M40.9017 16.875H37.5684V20.25H40.9017V16.875Z" fill="black"/>
<path d="M24.2352 16.875H20.9019V20.25H24.2352V16.875Z" fill="black"/>
<path d="M34.235 37.125H27.5684V40.5H34.235V37.125Z" fill="black"/>
<path d="M10.9017 3.375H7.56836V20.25H10.9017V3.375Z" fill="black"/>
<path d="M40.9017 30.375H37.5684V33.75H40.9017V30.375Z" fill="black"/>
<path d="M37.5687 33.75H34.2354V37.125H37.5687V33.75Z" fill="black"/>
<path d="M44.2352 27H40.9019V30.375H44.2352V27Z" fill="black"/>
<path d="M47.5687 23.625H44.2354V27H47.5687V23.625Z" fill="black"/>
<path d="M50.9017 20.25H47.5684V23.625H50.9017V20.25Z" fill="black"/>
<path d="M54.2352 0H50.9019V20.25H54.2352V0Z" fill="black"/>
<path d="M27.5687 33.75H24.2354V37.125H27.5687V33.75Z" fill="black"/>
<path d="M24.2352 30.375H20.9019V33.75H24.2352V30.375Z" fill="black"/>
<path d="M20.9017 27H17.5684V30.375H20.9017V27Z" fill="black"/>
<path d="M17.5687 23.625H14.2354V27H17.5687V23.625Z" fill="black"/>
<path d="M14.2352 20.25H10.9019V23.625H14.2352V20.25Z" fill="black"/>
<path d="M57.5687 13.5H54.2354V16.875H57.5687V13.5Z" fill="black"/>
<path d="M54.235 0H7.56836V3.375H54.235V0Z" fill="black"/>
<path d="M7.56868 13.5H4.23535V16.875H7.56868V13.5Z" fill="black"/>
<path d="M60.9017 16.875H57.5684V47.25H60.9017V16.875Z" fill="black"/>
<path d="M4.23519 16.875H0.901855V47.25H4.23519V16.875Z" fill="black"/>
<path d="M57.5687 47.25H54.2354V50.625H57.5687V47.25Z" fill="black"/>
<path d="M40.902 37.125H44.2354V33.75H40.902V37.125Z" fill="black"/>
<path d="M44.235 40.5H47.5684V37.125H44.235V40.5Z" fill="black"/>
<path d="M47.5685 43.875H50.9019V40.5H47.5685V43.875Z" fill="black"/>
<path d="M50.902 47.25H54.2354V43.875H50.902V47.25Z" fill="black"/>
<path d="M20.9017 33.75H17.5684V37.125H20.9017V33.75Z" fill="black"/>
<path d="M17.5687 37.125H14.2354V40.5H17.5687V37.125Z" fill="black"/>
<path d="M14.2352 40.5H10.9019V43.875H14.2352V40.5Z" fill="black"/>
<path d="M10.9017 43.875H7.56836V47.25H10.9017V43.875Z" fill="black"/>
<path d="M7.56868 47.25H4.23535V50.625H7.56868V47.25Z" fill="black"/>
<path d="M54.235 50.625H7.56836V54H54.235V50.625Z" fill="black"/>
</svg>
