<svg width="43" height="62" viewBox="0 0 43 62" fill="none" xmlns="http://www.w3.org/2000/svg">
<g clip-path="url(#clip0_880:1349)">
<path d="M35.9019 6.88878V3.44434H7.90186V6.88878H4.40186V55.111H7.90186V58.5554H35.9019V55.111H39.4019V6.88878H35.9019Z" fill="#FFEB40"/>
<path d="M23.6519 53.3887H20.1519V56.8331H23.6519V53.3887Z" fill="black"/>
<path d="M42.9019 6.88867H39.4019V55.1109H42.9019V6.88867Z" fill="black"/>
<path d="M4.40186 6.88867H0.901855V55.1109H4.40186V6.88867Z" fill="black"/>
<path d="M39.4019 3.44434H35.9019V6.88878H39.4019V3.44434Z" fill="black"/>
<path d="M7.90186 3.44434H4.40186V6.88878H7.90186V3.44434Z" fill="black"/>
<path d="M39.4019 55.1113H35.9019V58.5558H39.4019V55.1113Z" fill="black"/>
<path d="M7.90186 55.1113H4.40186V58.5558H7.90186V55.1113Z" fill="black"/>
<path d="M35.9019 0H7.90186V3.44444H35.9019V0Z" fill="black"/>
<path d="M35.9019 58.5557H7.90186V62.0001H35.9019V58.5557Z" fill="black"/>
<path d="M7.90186 10.3335V51.6668H35.9019V10.3335H7.90186ZM32.4019 48.2224H11.4019V13.7779H32.4019V48.2224Z" fill="black"/>
<path d="M32.4019 13.7778H11.4019V48.2223H32.4019V13.7778Z" fill="white"/>
<path d="M27.1519 6.02783H16.6519V7.75005H27.1519V6.02783Z" fill="black"/>
</g>
<defs>
<clipPath id="clip0_880:1349">
<rect width="42" height="62" fill="white" transform="translate(0.901855)"/>
</clipPath>
</defs>
</svg>
